<?xml version="1.0" encoding="UTF-8"?>
<svg id="Layer_1" data-name="Layer 1" xmlns="http://www.w3.org/2000/svg" viewBox="0 0 289.78 82.53">
  <defs>
    <style>
      .cls-1 {
        fill: #90bb4c;
      }

      .cls-1, .cls-2 {
        stroke-width: 0px;
      }

      .cls-2 {
        fill: #223459;
      }
    </style>
  </defs>
  <g>
    <g>
      <path class="cls-2" d="M40.09,34.23V2.16h-4.61V.81h10.36v1.35h-3.9v31.58c0,10.93-3.62,17.46-18.17,17.46-11.57,0-19.87-4.12-19.87-18.24V2.16H0V.81h22.35v1.35h-4.61v33.21c0,7.81,1.85,13.48,10.57,13.48,7.17,0,11.78-4.47,11.78-14.62Z"/>
      <path class="cls-2" d="M84.37,42.25c0-5.89-4.4-7.81-13.13-10.29-8.59-2.41-15.11-5.82-15.11-16.53C56.13,7.48,62.02.03,72.95.03c6.53,0,10.22,2.2,12.63,2.2,1.21,0,1.56-.5,2.06-1.42h.78l.5,14.33h-1.14c-3.62-6.53-8.44-13.62-15.75-13.62-5.11,0-8.66,2.98-8.66,7.17,0,5.25,4.83,7.02,11.99,8.94,7.88,2.13,16.6,4.83,16.6,16.6,0,10.22-6.95,16.96-17.38,16.96-6.88,0-12.84-2.13-14.83-2.13-1.14,0-1.56.78-2.13,2.13h-.99l-.71-16.89h1.21c3.55,7.1,10.43,15.4,18.24,15.4,4.26,0,9.01-2.27,9.01-7.45Z"/>
      <path class="cls-2" d="M122.48,50.48h-20.08v-1.35h4.68V2.16h-4.68V.81h21.93c17.53,0,27.25,6.32,27.25,23.98,0,20.01-12.13,25.69-29.09,25.69ZM123.62,49.13c9.58,0,13.34-6.17,13.34-22.07v-4.12c0-17.24-4.4-20.79-14.33-20.79h-1.7v46.98h2.7Z"/>
      <path class="cls-2" d="M181.38,33.8h-14.05l-5.46,15.33h5.32v1.35h-10.86v-1.35h3.34L177.76.38h5.82l17.88,48.75h3.27v1.35h-23.2v-1.35h5.04l-5.18-15.33ZM167.97,32.24h12.84l-6.17-18.59-6.67,18.59Z"/>
    </g>
    <g>
      <rect class="cls-1" x="230.3" y="30.96" width="7.48" height="31.72" rx="2" ry="2" transform="translate(280.86 -187.21) rotate(90)"/>
      <rect class="cls-1" x="230.3" y="19.67" width="7.48" height="31.72" rx="2" ry="2" transform="translate(269.56 -198.51) rotate(90)"/>
      <rect class="cls-1" x="254.36" width="11.89" height="50.56" rx="2" ry="2" transform="translate(520.6 50.56) rotate(180)"/>
      <rect class="cls-1" x="270.71" width="19.07" height="50.56" rx="2" ry="2" transform="translate(560.49 50.56) rotate(180)"/>
      <rect class="cls-1" x="218.17" y="0" width="31.72" height="26.93" rx="2" ry="2" transform="translate(468.07 26.93) rotate(180)"/>
    </g>
  </g>
  <g>
    <path class="cls-2" d="M13.96,64.15h2.25v8.9c.01,1.53-.47,2.76-1.46,3.68-.99.92-2.33,1.37-4.03,1.35-1.71,0-3.03-.45-3.98-1.35-.95-.91-1.42-2.15-1.42-3.73v-8.86h2.26v8.7c0,1.13.26,1.96.79,2.5.53.54,1.34.81,2.43.81,2.12,0,3.18-1.11,3.18-3.33v-8.68Z"/>
    <path class="cls-2" d="M21.2,77.79c-.24.26-.59.39-1.03.39s-.79-.13-1.03-.38c-.24-.25-.36-.61-.36-1.07s.12-.81.36-1.05c.24-.24.58-.37,1.03-.37s.8.12,1.04.38c.24.25.36.6.36,1.04s-.12.8-.37,1.06Z"/>
    <path class="cls-2" d="M31.18,71.32c.91.69,1.37,1.64,1.37,2.86s-.44,2.17-1.32,2.87c-.88.7-2.1,1.04-3.66,1.04s-2.83-.24-3.82-.72v-2.13c1.34.63,2.66.95,3.97.95.87,0,1.52-.17,1.95-.5s.65-.77.65-1.32-.19-1-.57-1.35-1.2-.78-2.44-1.29c-1.25-.5-2.12-1.08-2.63-1.74-.51-.65-.76-1.43-.76-2.34,0-1.15.41-2.05,1.23-2.71.82-.66,1.9-.99,3.23-.99s2.66.29,3.98.87l-.72,1.84c-1.23-.52-2.32-.77-3.27-.77-.71,0-1.26.15-1.64.46-.38.31-.57.73-.57,1.26,0,.36.07.67.22.93.17.27.42.51.76.72.34.22.98.52,1.93.92.95.4,1.66.78,2.13,1.14Z"/>
    <path class="cls-2" d="M37.08,77.79c-.24.26-.59.39-1.03.39s-.79-.13-1.03-.38c-.24-.25-.36-.61-.36-1.07s.12-.81.36-1.05c.24-.24.58-.37,1.03-.37s.8.12,1.04.38.36.6.36,1.04-.12.8-.37,1.06Z"/>
    <path class="cls-2" d="M50.31,64.15c2.19,0,3.89.59,5.11,1.77,1.22,1.18,1.83,2.87,1.83,5.08s-.63,3.91-1.89,5.1c-1.26,1.2-3.07,1.8-5.44,1.8h-3.84v-13.75h4.24ZM49.91,76.01c3.31,0,4.96-1.68,4.96-5.04s-1.54-4.94-4.62-4.94h-1.94v9.98h1.6Z"/>
    <path class="cls-2" d="M64.51,78.09c-1.62,0-2.88-.47-3.79-1.42-.91-.95-1.37-2.26-1.37-3.93s.42-2.99,1.27-3.96,1.98-1.46,3.41-1.46,2.53.42,3.33,1.25c.8.82,1.2,1.97,1.2,3.44v1.19h-6.93c.03,1.01.3,1.79.81,2.33s1.24.81,2.17.81c1.14,0,2.27-.25,3.42-.75v1.8c-1,.47-2.18.7-3.52.7ZM65.76,69.66c-.4-.44-.95-.67-1.66-.67s-1.28.22-1.69.67c-.42.45-.67,1.09-.75,1.94h4.72c-.01-.85-.22-1.5-.62-1.94Z"/>
    <path class="cls-2" d="M73.27,68.9c.69-1.05,1.7-1.58,3.04-1.58s2.37.47,3.09,1.42,1.09,2.26,1.09,3.96-.37,3.02-1.11,3.97c-.74.95-1.77,1.43-3.07,1.43s-2.32-.47-3.04-1.42h-.14c.09.84.14,1.38.14,1.6v4.26h-2.21v-15.02h1.79c.06.22.16.68.31,1.39h.11ZM77.6,75.34c.41-.63.62-1.52.62-2.68s-.21-2.04-.62-2.64-1.03-.9-1.87-.9-1.46.26-1.86.77c-.4.52-.61,1.34-.61,2.47v.33c0,1.26.2,2.17.61,2.74s1.06.85,1.95.85c.77,0,1.36-.31,1.77-.94Z"/>
    <path class="cls-2" d="M91.14,77.9h-1.58l-.44-1.45h-.08c-.5.63-1.01,1.07-1.51,1.3s-1.16.34-1.96.34c-1.02,0-1.82-.28-2.39-.83-.57-.55-.86-1.35-.86-2.39,0-2.08,1.61-3.17,4.84-3.27l1.79-.05v-.55c0-.67-.15-1.17-.47-1.49-.31-.33-.79-.49-1.44-.49-.83,0-1.81.26-2.95.78l-.71-1.58c1.16-.6,2.4-.9,3.74-.9s2.34.29,3.01.87,1,1.48,1,2.71v7ZM84.62,74.95c0,.47.14.83.42,1.08s.69.38,1.23.38c.8,0,1.45-.22,1.93-.67.49-.45.73-1.08.73-1.89v-.9l-1.34.05c-1.04.04-1.8.22-2.27.53-.47.31-.71.79-.71,1.43Z"/>
    <path class="cls-2" d="M99.5,67.32c.45,0,.81.03,1.1.09l-.21,2.06c-.33-.08-.65-.12-.98-.12-.88,0-1.6.29-2.15.87-.54.58-.81,1.33-.81,2.25v5.43h-2.21v-10.39h1.73l.29,1.83h.1c.36-.63.81-1.12,1.36-1.48s1.15-.54,1.78-.54Z"/>
    <path class="cls-2" d="M104.95,74.75c0,.52.13.9.39,1.16.26.26.64.39,1.13.39s1.01-.08,1.55-.25v1.66c-.59.25-1.31.38-2.14.38-2.1,0-3.14-1.1-3.14-3.31v-5.6h-1.42v-.98l1.53-.8.75-2.2h1.36v2.32h2.97v1.67h-2.97v5.57Z"/>
    <path class="cls-2" d="M118.85,72.4v5.51h-2.21v-6.41c0-.8-.15-1.4-.45-1.79s-.77-.59-1.42-.59c-.86,0-1.48.28-1.87.84-.39.56-.59,1.48-.59,2.76v5.18h-2.21v-10.39h1.73l.3,1.36h.11c.29-.49.71-.88,1.25-1.14.54-.27,1.15-.4,1.82-.4,1.6,0,2.65.54,3.18,1.63h.15c.31-.52.74-.92,1.3-1.2s1.2-.43,1.92-.43c1.23,0,2.13.31,2.7.93.57.62.86,1.58.86,2.87v6.78h-2.2v-6.41c0-1.58-.62-2.37-1.87-2.37-.86,0-1.48.27-1.89.8-.4.53-.6,1.36-.6,2.48Z"/>
    <path class="cls-2" d="M133.04,78.09c-1.62,0-2.88-.47-3.79-1.42-.91-.95-1.37-2.26-1.37-3.93s.42-2.99,1.27-3.96,1.98-1.46,3.41-1.46,2.53.42,3.33,1.25c.8.82,1.2,1.97,1.2,3.44v1.19h-6.93c.03,1.01.3,1.79.81,2.33s1.24.81,2.17.81c1.14,0,2.27-.25,3.42-.75v1.8c-1,.47-2.18.7-3.52.7ZM134.29,69.66c-.4-.44-.95-.67-1.66-.67s-1.28.22-1.69.67c-.42.45-.67,1.09-.75,1.94h4.72c-.01-.85-.22-1.5-.62-1.94Z"/>
    <path class="cls-2" d="M148.74,71.12v6.78h-2.23v-6.39c0-.81-.16-1.41-.49-1.8-.32-.39-.83-.59-1.53-.59-.93,0-1.62.28-2.05.84-.43.56-.65,1.48-.65,2.77v5.18h-2.21v-10.39h1.73l.3,1.36h.11c.31-.49.76-.88,1.33-1.14s1.22-.4,1.93-.4c2.49,0,3.74,1.27,3.74,3.8Z"/>
    <path class="cls-2" d="M154.24,74.75c0,.52.13.9.39,1.16.26.26.64.39,1.13.39s1.01-.08,1.55-.25v1.66c-.59.25-1.31.38-2.14.38-2.1,0-3.14-1.1-3.14-3.31v-5.6h-1.42v-.98l1.53-.8.75-2.2h1.36v2.32h2.97v1.67h-2.97v5.57Z"/>
    <path class="cls-2" d="M164.32,72.69c0-1.7.43-3.02,1.3-3.96.86-.94,2.07-1.41,3.6-1.41s2.75.49,3.62,1.46c.88.97,1.32,2.29,1.32,3.95s-.44,2.97-1.31,3.93-2.08,1.43-3.64,1.43c-1.46.03-2.65-.46-3.56-1.47-.91-1.01-1.36-2.32-1.34-3.93ZM169.23,69.12c-1.76,0-2.63,1.19-2.63,3.58s.89,3.58,2.65,3.58,2.63-1.19,2.63-3.58-.88-3.58-2.65-3.58Z"/>
    <path class="cls-2" d="M181.92,67.51v1.67h-2.54v8.72h-2.23v-8.72h-1.71v-1.03l1.71-.68v-.68c0-1.23.29-2.14.87-2.73.58-.59,1.46-.89,2.64-.89.79,0,1.55.13,2.3.39l-.59,1.67c-.54-.17-1.06-.26-1.56-.26s-.86.15-1.09.46c-.23.31-.34.77-.34,1.4v.68h2.54Z"/>
    <path class="cls-2" d="M200.4,77.9h-2.39l-1.37-3.81h-5.27l-1.34,3.81h-2.37l5.14-13.8h2.44l5.15,13.8ZM192.03,72.15h4.01c-1.07-3.11-1.65-4.85-1.77-5.2-.11-.36-.2-.66-.26-.91-.17.76-.41,1.6-.74,2.53l-1.24,3.58Z"/>
    <path class="cls-2" d="M210.76,67.51v1.21l-1.78.32c.38.52.57,1.13.57,1.83,0,1.07-.37,1.91-1.11,2.52-.74.62-1.76.92-3.06.92-.36,0-.66-.02-.9-.07-.48.29-.72.64-.72,1.03,0,.24.12.42.35.54.23.12.64.17,1.22.17h1.81c1.14,0,2.01.24,2.61.73.6.49.9,1.19.9,2.12,0,1.18-.49,2.09-1.46,2.73s-2.38.96-4.21.96c-1.41,0-2.48-.25-3.23-.75-.75-.5-1.12-1.21-1.12-2.14,0-.64.2-1.18.6-1.61.4-.44.97-.74,1.7-.91-.29-.13-.53-.33-.73-.61-.19-.28-.29-.59-.29-.93s.1-.65.31-.91.54-.54,1-.82c-.55-.24-.99-.62-1.32-1.14-.33-.53-.5-1.13-.5-1.82,0-1.13.36-2,1.07-2.62s1.73-.93,3.05-.93c.29,0,.59.02.92.06s.57.08.73.13h3.6ZM204.66,77.86c-.63,0-1.14.15-1.51.45-.37.3-.56.69-.56,1.19s.21.86.64,1.12c.43.26,1.03.39,1.81.39,1.17,0,2.06-.17,2.66-.51.61-.34.91-.8.91-1.38,0-.45-.16-.77-.49-.96s-.92-.29-1.8-.29h-1.67ZM205.49,68.74c-.64,0-1.12.18-1.45.54-.33.36-.49.88-.49,1.55s.17,1.18.5,1.54c.33.35.81.53,1.44.53,1.28,0,1.91-.69,1.91-2.08s-.64-2.08-1.91-2.08Z"/>
    <path class="cls-2" d="M217.96,67.32c.45,0,.81.03,1.1.09l-.21,2.06c-.33-.08-.65-.12-.98-.12-.88,0-1.6.29-2.15.87-.54.58-.81,1.33-.81,2.25v5.43h-2.21v-10.39h1.73l.29,1.83h.1c.36-.63.81-1.12,1.36-1.48s1.15-.54,1.78-.54Z"/>
    <path class="cls-2" d="M223.34,64.73c0,.39-.11.69-.32.9-.22.22-.52.32-.91.32s-.7-.11-.91-.32c-.22-.22-.32-.52-.32-.9s.11-.69.32-.9c.22-.21.52-.32.91-.32s.7.11.91.32c.22.21.32.51.32.9ZM223.21,67.51v10.39h-2.21v-10.39h2.21Z"/>
    <path class="cls-2" d="M230.56,78.09c-1.57,0-2.76-.46-3.58-1.37s-1.23-2.24-1.23-3.98.43-3.07,1.28-4.01c.85-.94,2.09-1.4,3.71-1.4,1.1,0,2.09.2,2.96.61l-.67,1.78c-.92-.36-1.69-.54-2.31-.54-1.8,0-2.7,1.2-2.7,3.58,0,1.16.22,2.04.67,2.63.45.59,1.1.88,1.96.88.98,0,1.92-.25,2.8-.74v1.93c-.74.43-1.71.65-2.89.65Z"/>
    <path class="cls-2" d="M244.98,77.9h-1.75l-.31-1.36h-.1c-.31.49-.75.87-1.32,1.14-.57.27-1.21.41-1.94.41-1.26,0-2.2-.31-2.82-.94-.62-.63-.93-1.58-.93-2.85v-6.79h2.22v6.4c0,.81.17,1.41.5,1.8.33.39.84.59,1.53.59.93,0,1.61-.28,2.04-.83.44-.56.66-1.49.66-2.79v-5.18h2.23v10.39Z"/>
    <path class="cls-2" d="M250.33,63.28v14.63h-2.21v-14.63h2.21Z"/>
    <path class="cls-2" d="M255.91,74.75c0,.52.13.9.39,1.16.26.26.64.39,1.13.39s1.01-.08,1.55-.25v1.66c-.59.25-1.31.38-2.14.38-2.1,0-3.14-1.1-3.14-3.31v-5.6h-1.42v-.98l1.53-.8.75-2.2h1.36v2.32h2.97v1.67h-2.97v5.57Z"/>
    <path class="cls-2" d="M270.13,77.9h-1.75l-.31-1.36h-.1c-.31.49-.75.87-1.32,1.14-.57.27-1.21.41-1.94.41-1.26,0-2.2-.31-2.82-.94-.62-.63-.93-1.58-.93-2.85v-6.79h2.22v6.4c0,.81.17,1.41.5,1.8.33.39.84.59,1.53.59.93,0,1.61-.28,2.04-.83.44-.56.66-1.49.66-2.79v-5.18h2.23v10.39Z"/>
    <path class="cls-2" d="M278.55,67.32c.45,0,.81.03,1.1.09l-.21,2.06c-.33-.08-.65-.12-.98-.12-.88,0-1.6.29-2.15.87-.54.58-.81,1.33-.81,2.25v5.43h-2.21v-10.39h1.73l.29,1.83h.1c.36-.63.81-1.12,1.36-1.48s1.15-.54,1.78-.54Z"/>
    <path class="cls-2" d="M285.74,78.09c-1.62,0-2.88-.47-3.79-1.42-.91-.95-1.37-2.26-1.37-3.93s.42-2.99,1.27-3.96,1.98-1.46,3.41-1.46,2.53.42,3.33,1.25c.8.82,1.2,1.97,1.2,3.44v1.19h-6.93c.03,1.01.3,1.79.81,2.33s1.24.81,2.17.81c1.14,0,2.27-.25,3.42-.75v1.8c-1,.47-2.18.7-3.52.7ZM286.99,69.66c-.4-.44-.95-.67-1.66-.67s-1.28.22-1.69.67c-.42.45-.67,1.09-.75,1.94h4.72c-.01-.85-.22-1.5-.62-1.94Z"/>
  </g>
</svg>