<?xml version="1.0" encoding="UTF-8"?>
<svg id="Layer_1" data-name="Layer 1" xmlns="http://www.w3.org/2000/svg" viewBox="0 0 522.01 42.83">
  <defs>
    <style>
      .cls-1 {
        fill: #90bb4c;
      }

      .cls-1, .cls-2 {
        stroke-width: 0px;
      }

      .cls-2 {
        fill: #fce5d9;
      }
    </style>
  </defs>
  <g>
    <path class="cls-2" d="M30.8,26.29V1.66h-3.54V.62h7.96v1.04h-3v24.26c0,8.39-2.78,13.41-13.95,13.41-8.88,0-15.26-3.16-15.26-14.01V1.66H0V.62h17.17v1.04h-3.54v25.51c0,6,1.42,10.36,8.12,10.36,5.51,0,9.05-3.43,9.05-11.23Z"/>
    <path class="cls-2" d="M64.81,32.45c0-4.52-3.38-6-10.08-7.9-6.6-1.85-11.61-4.47-11.61-12.7C43.12,5.74,47.64.02,56.03.02c5.01,0,7.85,1.69,9.7,1.69.93,0,1.2-.38,1.58-1.09h.6l.38,11.01h-.87c-2.78-5.01-6.49-10.47-12.1-10.47-3.92,0-6.65,2.29-6.65,5.51,0,4.03,3.71,5.4,9.21,6.87,6.05,1.64,12.75,3.71,12.75,12.75,0,7.85-5.34,13.03-13.35,13.03-5.29,0-9.87-1.64-11.39-1.64-.87,0-1.2.6-1.64,1.64h-.76l-.55-12.97h.93c2.73,5.45,8.01,11.83,14.01,11.83,3.27,0,6.92-1.74,6.92-5.72Z"/>
    <path class="cls-2" d="M94.08,38.77h-15.43v-1.04h3.6V1.66h-3.6V.62h16.84c13.46,0,20.93,4.85,20.93,18.42,0,15.37-9.32,19.73-22.35,19.73ZM94.95,37.74c7.36,0,10.25-4.74,10.25-16.95v-3.16c0-13.24-3.38-15.97-11.01-15.97h-1.31v36.08h2.07Z"/>
    <path class="cls-2" d="M139.32,25.97h-10.79l-4.2,11.77h4.09v1.04h-8.34v-1.04h2.56L136.54.29h4.47l13.74,37.45h2.51v1.04h-17.82v-1.04h3.87l-3.98-11.77ZM129.02,24.77h9.87l-4.74-14.28-5.12,14.28Z"/>
  </g>
  <g>
    <rect class="cls-1" x="176.89" y="23.78" width="5.74" height="24.37" rx="2" ry="2" transform="translate(215.73 -143.8) rotate(90)"/>
    <rect class="cls-1" x="176.89" y="15.11" width="5.74" height="24.37" rx="2" ry="2" transform="translate(207.05 -152.47) rotate(90)"/>
    <rect class="cls-1" x="195.37" y="0" width="9.13" height="38.84" rx="2" ry="2" transform="translate(399.88 38.84) rotate(180)"/>
    <rect class="cls-1" x="207.93" width="14.65" height="38.84" rx="2" ry="2" transform="translate(430.52 38.84) rotate(180)"/>
    <rect class="cls-1" x="167.58" y="0" width="24.37" height="20.68" rx="2" ry="2" transform="translate(359.53 20.68) rotate(180)"/>
  </g>
  <g>
    <path class="cls-2" d="M241.7,24.16h2.28v9.05c.01,1.56-.48,2.8-1.49,3.74-1,.94-2.37,1.4-4.1,1.38-1.73,0-3.08-.46-4.05-1.37-.96-.92-1.44-2.18-1.44-3.79v-9h2.29v8.84c0,1.15.27,1.99.8,2.54.53.55,1.36.82,2.47.82,2.15,0,3.23-1.13,3.23-3.39v-8.82Z"/>
    <path class="cls-2" d="M249.06,38.01c-.25.26-.6.39-1.05.39s-.8-.13-1.05-.39c-.24-.26-.37-.62-.37-1.08s.12-.82.36-1.07c.24-.25.59-.37,1.05-.37s.81.13,1.06.38c.24.25.37.61.37,1.06s-.12.81-.37,1.07Z"/>
    <path class="cls-2" d="M259.21,31.44c.93.7,1.39,1.67,1.39,2.9s-.45,2.21-1.34,2.92c-.89.71-2.13,1.06-3.72,1.06s-2.88-.24-3.89-.73v-2.17c1.36.64,2.7.97,4.03.97.88,0,1.55-.17,1.99-.5s.66-.78.66-1.34-.19-1.02-.58-1.37-1.22-.79-2.48-1.31c-1.27-.51-2.16-1.1-2.68-1.77-.52-.67-.77-1.46-.77-2.38,0-1.17.42-2.09,1.25-2.75.83-.67,1.93-1,3.29-1s2.71.29,4.05.88l-.73,1.87c-1.25-.52-2.36-.79-3.32-.79-.72,0-1.28.16-1.67.47-.39.32-.58.74-.58,1.28,0,.37.07.68.22.95.17.27.43.51.77.73.34.22,1,.53,1.96.93.97.4,1.69.79,2.16,1.16Z"/>
    <path class="cls-2" d="M265.2,38.01c-.25.26-.6.39-1.05.39s-.8-.13-1.05-.39c-.24-.26-.37-.62-.37-1.08s.12-.82.36-1.07c.24-.25.59-.37,1.05-.37s.81.13,1.06.38.37.61.37,1.06-.12.81-.37,1.07Z"/>
    <path class="cls-2" d="M278.65,24.16c2.22,0,3.95.6,5.19,1.8,1.24,1.2,1.86,2.92,1.86,5.16s-.64,3.97-1.92,5.19c-1.28,1.22-3.12,1.83-5.53,1.83h-3.91v-13.97h4.31ZM278.24,36.21c3.36,0,5.04-1.71,5.04-5.12s-1.56-5.02-4.69-5.02h-1.97v10.14h1.62Z"/>
    <path class="cls-2" d="M293.08,38.32c-1.64,0-2.93-.48-3.85-1.44-.93-.96-1.39-2.29-1.39-3.99s.43-3.04,1.29-4.03,2.01-1.48,3.46-1.48,2.58.42,3.38,1.27c.81.83,1.22,2,1.22,3.49v1.21h-7.04c.03,1.03.3,1.82.83,2.37s1.26.83,2.21.83c1.15,0,2.31-.25,3.47-.76v1.83c-1.02.47-2.21.71-3.58.71ZM294.35,29.75c-.4-.45-.97-.68-1.69-.68s-1.3.23-1.72.68c-.42.45-.68,1.11-.76,1.97h4.8c-.01-.86-.22-1.52-.63-1.97Z"/>
    <path class="cls-2" d="M301.98,28.98c.7-1.07,1.73-1.6,3.09-1.6s2.41.48,3.14,1.44,1.1,2.3,1.1,4.02-.38,3.07-1.13,4.03c-.75.97-1.79,1.45-3.12,1.45s-2.36-.48-3.08-1.44h-.14c.09.86.14,1.4.14,1.62v4.33h-2.25v-15.27h1.82c.06.22.16.69.32,1.41h.12ZM306.38,35.53c.42-.64.63-1.55.63-2.73s-.21-2.08-.63-2.69-1.05-.91-1.9-.91-1.48.26-1.89.79c-.41.52-.62,1.36-.62,2.51v.34c0,1.28.21,2.21.62,2.79s1.07.87,1.99.87c.78,0,1.38-.32,1.8-.96Z"/>
    <path class="cls-2" d="M320.14,38.13h-1.6l-.45-1.48h-.08c-.51.64-1.02,1.08-1.53,1.32s-1.18.35-1.99.35c-1.04,0-1.85-.28-2.43-.84-.58-.56-.87-1.37-.87-2.43,0-2.12,1.64-3.22,4.92-3.32l1.82-.05v-.56c0-.68-.16-1.19-.47-1.52-.31-.33-.8-.5-1.46-.5-.84,0-1.84.27-2.99.8l-.72-1.6c1.17-.61,2.44-.91,3.81-.91s2.38.3,3.06.89,1.01,1.51,1.01,2.75v7.11ZM313.51,35.12c0,.47.14.84.42,1.09s.7.38,1.25.38c.81,0,1.47-.23,1.96-.68.5-.45.74-1.09.74-1.92v-.91l-1.36.05c-1.06.04-1.83.22-2.31.54-.48.32-.72.8-.72,1.45Z"/>
    <path class="cls-2" d="M328.63,27.37c.45,0,.82.03,1.11.1l-.21,2.09c-.33-.08-.67-.12-1-.12-.89,0-1.62.29-2.19.88-.55.59-.83,1.35-.83,2.28v5.52h-2.25v-10.56h1.76l.3,1.86h.11c.36-.64.82-1.14,1.39-1.5s1.17-.55,1.81-.55Z"/>
    <path class="cls-2" d="M334.17,34.92c0,.52.13.92.4,1.18.26.27.65.4,1.15.4s1.02-.08,1.58-.25v1.69c-.6.25-1.33.38-2.18.38-2.13,0-3.2-1.12-3.2-3.37v-5.69h-1.44v-1l1.55-.82.76-2.24h1.38v2.36h3.01v1.7h-3.01v5.66Z"/>
    <path class="cls-2" d="M348.3,32.53v5.59h-2.25v-6.52c0-.81-.15-1.42-.46-1.82s-.79-.59-1.44-.59c-.87,0-1.51.29-1.91.85-.4.57-.6,1.51-.6,2.81v5.27h-2.25v-10.56h1.76l.31,1.38h.12c.3-.5.72-.89,1.27-1.16.55-.27,1.17-.41,1.85-.41,1.62,0,2.7.55,3.23,1.66h.15c.31-.52.75-.93,1.32-1.22s1.22-.44,1.95-.44c1.25,0,2.16.32,2.74.95.58.63.88,1.61.88,2.91v6.89h-2.24v-6.52c0-1.61-.63-2.41-1.9-2.41-.87,0-1.51.27-1.92.81-.41.54-.61,1.38-.61,2.52Z"/>
    <path class="cls-2" d="M362.72,38.32c-1.64,0-2.93-.48-3.85-1.44-.93-.96-1.39-2.29-1.39-3.99s.43-3.04,1.29-4.03,2.01-1.48,3.46-1.48,2.58.42,3.38,1.27c.81.83,1.22,2,1.22,3.49v1.21h-7.04c.03,1.03.3,1.82.83,2.37s1.26.83,2.21.83c1.15,0,2.31-.25,3.47-.76v1.83c-1.02.47-2.21.71-3.58.71ZM364,29.75c-.4-.45-.97-.68-1.69-.68s-1.3.23-1.72.68c-.42.45-.68,1.11-.76,1.97h4.8c-.01-.86-.22-1.52-.63-1.97Z"/>
    <path class="cls-2" d="M378.68,31.24v6.89h-2.26v-6.5c0-.82-.16-1.43-.49-1.83-.33-.4-.85-.6-1.56-.6-.95,0-1.64.28-2.08.85-.44.57-.66,1.5-.66,2.81v5.27h-2.25v-10.56h1.76l.31,1.38h.12c.32-.5.77-.89,1.35-1.16s1.24-.41,1.96-.41c2.53,0,3.8,1.29,3.8,3.86Z"/>
    <path class="cls-2" d="M384.26,34.92c0,.52.13.92.4,1.18.26.27.65.4,1.15.4s1.02-.08,1.58-.25v1.69c-.6.25-1.33.38-2.18.38-2.13,0-3.2-1.12-3.2-3.37v-5.69h-1.44v-1l1.55-.82.76-2.24h1.38v2.36h3.01v1.7h-3.01v5.66Z"/>
    <path class="cls-2" d="M394.51,32.83c0-1.73.44-3.07,1.32-4.02.88-.96,2.1-1.43,3.66-1.43s2.79.49,3.68,1.48c.89.99,1.34,2.33,1.34,4.02s-.44,3.02-1.33,3.99-2.12,1.46-3.69,1.46c-1.49.03-2.69-.47-3.62-1.49-.93-1.02-1.38-2.35-1.36-4ZM399.5,29.2c-1.78,0-2.68,1.21-2.68,3.64s.9,3.64,2.7,3.64,2.67-1.21,2.67-3.64-.9-3.64-2.7-3.64Z"/>
    <path class="cls-2" d="M412.4,27.56v1.7h-2.58v8.87h-2.26v-8.87h-1.74v-1.05l1.74-.69v-.69c0-1.25.29-2.17.88-2.77.59-.6,1.48-.9,2.69-.9.8,0,1.58.13,2.34.39l-.59,1.7c-.55-.18-1.08-.27-1.59-.27s-.88.16-1.11.47c-.23.31-.35.79-.35,1.42v.69h2.58Z"/>
    <path class="cls-2" d="M431.18,38.13h-2.43l-1.39-3.88h-5.35l-1.36,3.88h-2.41l5.22-14.02h2.48l5.23,14.02ZM422.67,32.28h4.08c-1.08-3.16-1.68-4.93-1.79-5.29-.11-.36-.2-.67-.27-.92-.17.77-.42,1.63-.75,2.57l-1.26,3.64Z"/>
    <path class="cls-2" d="M441.71,27.56v1.23l-1.81.33c.38.53.57,1.15.57,1.86,0,1.08-.38,1.94-1.13,2.56-.75.63-1.79.94-3.11.94-.36,0-.67-.02-.91-.07-.49.3-.73.65-.73,1.05,0,.25.12.43.36.55.24.12.65.17,1.24.17h1.84c1.16,0,2.05.25,2.65.74.61.5.91,1.21.91,2.15,0,1.2-.5,2.12-1.49,2.77s-2.42.98-4.28.98c-1.43,0-2.53-.25-3.29-.76-.76-.51-1.14-1.23-1.14-2.18,0-.65.2-1.2.61-1.64.41-.44.98-.75,1.73-.93-.3-.13-.54-.33-.74-.62-.19-.28-.29-.6-.29-.94s.1-.66.31-.93.55-.55,1.01-.83c-.56-.24-1.01-.63-1.34-1.16-.34-.54-.5-1.15-.5-1.85,0-1.15.36-2.03,1.09-2.66s1.76-.95,3.09-.95c.29,0,.6.02.94.06s.58.08.74.13h3.66ZM435.51,38.09c-.64,0-1.16.15-1.53.46-.38.3-.57.71-.57,1.21s.22.88.65,1.14c.43.26,1.05.39,1.84.39,1.19,0,2.09-.17,2.71-.51.62-.34.92-.81.92-1.41,0-.45-.17-.78-.49-.98s-.94-.3-1.83-.3h-1.7ZM436.35,28.82c-.65,0-1.14.18-1.48.55-.33.37-.5.89-.5,1.58s.17,1.2.51,1.56c.34.36.83.54,1.46.54,1.3,0,1.94-.71,1.94-2.11s-.65-2.11-1.94-2.11Z"/>
    <path class="cls-2" d="M449.02,27.37c.45,0,.82.03,1.11.1l-.21,2.09c-.33-.08-.67-.12-1-.12-.89,0-1.62.29-2.19.88-.55.59-.83,1.35-.83,2.28v5.52h-2.25v-10.56h1.76l.3,1.86h.11c.36-.64.82-1.14,1.39-1.5s1.17-.55,1.81-.55Z"/>
    <path class="cls-2" d="M454.49,24.74c0,.39-.11.7-.33.92-.22.22-.53.33-.93.33s-.71-.11-.93-.33c-.22-.22-.33-.53-.33-.92s.11-.7.33-.91c.22-.22.53-.32.93-.32s.71.11.93.32c.22.22.33.52.33.91ZM454.35,27.56v10.56h-2.25v-10.56h2.25Z"/>
    <path class="cls-2" d="M461.83,38.32c-1.59,0-2.81-.47-3.64-1.4s-1.25-2.28-1.25-4.04.43-3.12,1.3-4.08c.87-.95,2.12-1.43,3.77-1.43,1.12,0,2.12.21,3,.62l-.68,1.8c-.93-.37-1.72-.55-2.35-.55-1.83,0-2.74,1.21-2.74,3.64,0,1.18.23,2.07.68,2.67.45.6,1.12.9,2,.9,1,0,1.95-.25,2.84-.75v1.96c-.76.44-1.74.66-2.94.66Z"/>
    <path class="cls-2" d="M476.48,38.13h-1.77l-.32-1.38h-.11c-.32.5-.77.88-1.34,1.16-.58.28-1.23.41-1.97.41-1.28,0-2.24-.32-2.87-.96-.63-.64-.94-1.6-.94-2.9v-6.9h2.26v6.51c0,.82.17,1.43.5,1.83.34.4.85.6,1.56.6.95,0,1.64-.28,2.07-.84.45-.57.67-1.51.67-2.83v-5.27h2.26v10.56Z"/>
    <path class="cls-2" d="M481.92,23.26v14.86h-2.25v-14.86h2.25Z"/>
    <path class="cls-2" d="M487.59,34.92c0,.52.13.92.4,1.18.26.27.65.4,1.15.4s1.02-.08,1.58-.25v1.69c-.6.25-1.33.38-2.18.38-2.13,0-3.2-1.12-3.2-3.37v-5.69h-1.44v-1l1.55-.82.76-2.24h1.38v2.36h3.01v1.7h-3.01v5.66Z"/>
    <path class="cls-2" d="M502.04,38.13h-1.77l-.32-1.38h-.11c-.32.5-.77.88-1.34,1.16-.58.28-1.23.41-1.97.41-1.28,0-2.24-.32-2.87-.96-.63-.64-.94-1.6-.94-2.9v-6.9h2.26v6.51c0,.82.17,1.43.5,1.83.34.4.85.6,1.56.6.95,0,1.64-.28,2.07-.84.45-.57.67-1.51.67-2.83v-5.27h2.26v10.56Z"/>
    <path class="cls-2" d="M510.6,27.37c.45,0,.82.03,1.11.1l-.21,2.09c-.33-.08-.67-.12-1-.12-.89,0-1.62.29-2.19.88-.55.59-.83,1.35-.83,2.28v5.52h-2.25v-10.56h1.76l.3,1.86h.11c.36-.64.82-1.14,1.39-1.5s1.17-.55,1.81-.55Z"/>
    <path class="cls-2" d="M517.9,38.32c-1.64,0-2.93-.48-3.85-1.44-.93-.96-1.39-2.29-1.39-3.99s.43-3.04,1.29-4.03,2.01-1.48,3.46-1.48,2.58.42,3.38,1.27c.81.83,1.22,2,1.22,3.49v1.21h-7.04c.03,1.03.3,1.82.83,2.37s1.26.83,2.21.83c1.15,0,2.31-.25,3.47-.76v1.83c-1.02.47-2.21.71-3.58.71ZM519.18,29.75c-.4-.45-.97-.68-1.69-.68s-1.3.23-1.72.68c-.42.45-.68,1.11-.76,1.97h4.8c-.01-.86-.22-1.52-.63-1.97Z"/>
  </g>
</svg>