<?xml version="1.0" encoding="UTF-8"?>
<svg id="d_s_icons" data-name="d&amp;amp;s icons" xmlns="http://www.w3.org/2000/svg" viewBox="0 0 800 800">
  <defs>
    <style>
      .cls-1 {
        fill: #fff;
        stroke: #223459;
        stroke-miterlimit: 10;
        stroke-width: 5px;
      }
    </style>
  </defs>
  <path class="cls-1" d="M403.12,365.27v-40.75c0-.27.25-.48.52-.46,79.21,8.57,87.14-53.41,87.45-75.75.06-4.4-3.45-8.03-7.86-8.09-47.11-.68-69.14,17.93-79.26,37.65-.22.44-.86.28-.86-.21v-28.58c0-.14.06-.27.17-.36,74.23-60.93,10.63-120.86-9.04-136.73-3.06-2.47-7.44-2.24-10.33.42-81.83,75.06-34.02,117.84-5.34,134.41.14.08.22.23.22.39v23.7c0,.49-.63.61-.85.18-18.25-34.64-63.31-30.68-80.35-27.78-3.9.67-6.67,4.18-6.53,8.14,3.46,98.46,65.76,80.38,87.12,71.26.31-.13.62.1.62.44v53.46c0,.49-.63.61-.85.18-18.21-34.56-63.12-30.7-80.24-27.79-3.95.67-6.78,4.16-6.64,8.16,3.46,98.46,65.76,80.38,87.12,71.26.31-.13.62.1.62.44v100.69c0,.31.29.53.59.45l23.39-6.34c.2-.06.34-.24.34-.45v-95.64c0-.32.3-.55.6-.44,24.78,9.11,78.78,18.19,81.97-73.29.14-3.98-2.61-7.49-6.54-8.16-15.61-2.66-54.73-6.19-75.22,19.86-.27.35-.81.18-.81-.26ZM470.15,259.39c.36,5.5,2.05,54.24-52.79,46.04-.29-.04-.49-.33-.4-.61,1.59-4.68,14.61-39.38,52.62-45.85.28-.05.55.13.57.41ZM312.6,261.15c4.66,1.19,31.73,9.3,52.03,41.26.18.28.02.66-.3.73-5.5,1.21-43.79,7.74-52.31-41.43-.06-.34.24-.65.57-.56ZM312.6,366.85c4.66,1.19,31.73,9.3,52.03,41.26.18.28.02.66-.3.73-5.5,1.21-43.79,7.74-52.31-41.43-.06-.34.24-.65.57-.56ZM390.89,140.99c2.41,4.77,17.05,36.54,3.48,81.4-.09.31-.47.45-.74.26-5.03-3.73-42.65-34.08-3.54-81.71.22-.26.64-.25.79.06ZM412.13,404.77c20.3-31.96,47.38-40.03,52.04-41.22.33-.08.63.23.57.56-8.52,49.13-46.81,42.59-52.31,41.39-.32-.07-.47-.45-.3-.73Z"/>
  <g>
    <path class="cls-1" d="M220.34,596.76l39.31-39.93c5.9-6,15.62-5.87,21.36.28l55.66,59.59,5.66,6.05c5.58,5.97,5.26,15.34-.72,20.92l-36.88,34.42c-5.71,5.33-14.57,5.3-20.25-.05l-63.75-60.13c-6.04-5.69-6.21-15.23-.39-21.15Z"/>
    <path class="cls-1" d="M439.81,616.03c1.62-.37,3.22-.82,4.81-1.35,14.5-4.9,25.5-16.56,36.17-27.53,21.5-22.12,44.2-43.18,63.76-67.04,3.67-4.48,7.33-9.27,8.48-14.95,1.39-6.83-1.07-13.81-3.62-20.29-12.24-31.06-27.18-62.6-46.37-90.04-3.11-4.44-10.9-4.76-15.95-4.48-6.17.34-12.28,2.4-17.27,6.08-9.12,6.72-14.18,18.57-12.73,29.81,3.14,24.24,32.72,40.32,31.51,64.73-.46,9.3-5.56,17.75-11.51,24.91-16.43,19.77-39.64,32.38-63.7,41.89-.72.28-1.2-.76-.51-1.11,23.73-12.35,52.86-23.52,66.43-46.25,2.32-3.88,2.87-9.94,1.32-15.23-1.27-4.34-4.22-9.83-8.25-11.88-2.72-1.39-5.93-1.34-8.98-1.12-12.59.9-25,4.2-36.37,9.67-16.82,8.09-31.9,21.06-50.39,23.63-11.78,1.64-23.75-1.18-35.63-.58-15.74.8-31.06,7.89-41.87,19.36-5.79,6.15-10.5,14.53-8.54,22.74,1.1,4.61,4.13,8.46,7.22,12.08,7.68,8.99,15.49,17.85,23.58,26.47,7.47,7.96,15.62,15.92,25.99,19.29,12.45,4.05,25.92.86,39.01.55,17.84-.41,36.24,4.56,53.4.64Z"/>
  </g>
  <path class="cls-1" d="M571.65,167.91c1.01-2.91,5.07-3.03,6.15-.14,1.75,4.71,4.37,10.01,8.34,15.3,6.6,8.81,14.38,14.18,20.42,17.37,2.45,1.29,2.27,4.84-.3,5.89-4.85,1.98-10.71,5.21-16.26,10.49-6.55,6.23-10.41,13.17-12.7,19.06-1.09,2.81-5.05,2.8-6.1-.03-1.77-4.82-4.6-10.33-9.16-15.66-6.19-7.22-13.23-11.37-18.72-13.74-2.54-1.09-2.57-4.65-.11-5.9,5.33-2.72,11.93-7.11,17.87-14.1,5.39-6.33,8.62-12.9,10.58-18.54Z"/>
  <path class="cls-1" d="M615.48,229.98c.72-2.07,3.61-2.15,4.37-.1,1.24,3.35,3.11,7.12,5.93,10.88,4.7,6.26,10.23,10.08,14.52,12.35,1.74.92,1.61,3.44-.21,4.19-3.45,1.41-7.62,3.71-11.57,7.46-4.66,4.43-7.41,9.37-9.03,13.56-.78,2-3.59,1.99-4.33-.02-1.26-3.42-3.27-7.35-6.52-11.13-4.4-5.14-9.41-8.09-13.31-9.77-1.8-.78-1.83-3.3-.08-4.2,3.79-1.94,8.48-5.06,12.71-10.03,3.83-4.5,6.13-9.18,7.52-13.18Z"/>
  <path class="cls-1" d="M220.89,216.88c.81-2.33,4.06-2.42,4.92-.11,1.4,3.77,3.5,8.02,6.68,12.25,5.29,7.05,11.51,11.35,16.35,13.91,1.96,1.04,1.81,3.87-.24,4.71-3.88,1.59-8.58,4.17-13.02,8.4-5.25,4.99-8.34,10.55-10.17,15.26-.88,2.25-4.05,2.24-4.88-.03-1.42-3.86-3.68-8.27-7.34-12.54-4.95-5.78-10.59-9.11-14.99-11-2.03-.88-2.06-3.72-.09-4.73,4.27-2.18,9.55-5.69,14.31-11.29,4.31-5.07,6.9-10.33,8.47-14.84Z"/>
  <path class="cls-1" d="M167.46,153.96c.72-2.07,3.61-2.15,4.37-.1,1.24,3.35,3.11,7.12,5.93,10.88,4.7,6.26,10.23,10.08,14.52,12.35,1.74.92,1.61,3.44-.21,4.19-3.45,1.41-7.62,3.71-11.57,7.46-4.66,4.43-7.41,9.37-9.03,13.56-.78,2-3.59,1.99-4.33-.02-1.26-3.42-3.27-7.35-6.52-11.13-4.4-5.14-9.41-8.09-13.31-9.77-1.8-.78-1.83-3.3-.08-4.2,3.79-1.94,8.48-5.06,12.71-10.03,3.83-4.5,6.13-9.18,7.52-13.18Z"/>
  <rect class="cls-1" x="142.72" y="330.65" width="27" height="13.02" rx="1.09" ry="1.09"/>
  <rect class="cls-1" x="194.31" y="330.65" width="20.73" height="13.02" rx="1.09" ry="1.09"/>
  <rect class="cls-1" x="237.69" y="330.65" width="25.07" height="13.02" rx="1.09" ry="1.09"/>
  <rect class="cls-1" x="146.1" y="373.44" width="30.85" height="12.65" rx="1.09" ry="1.09"/>
  <rect class="cls-1" x="204.67" y="373.44" width="22.9" height="12.65" rx="1.09" ry="1.09"/>
  <rect class="cls-1" x="521.47" y="604.79" width="39.83" height="24.89" rx="1.09" ry="1.09"/>
  <rect class="cls-1" x="595.37" y="601.17" width="30.58" height="24.89" rx="1.09" ry="1.09"/>
  <rect class="cls-1" x="438.4" y="645.27" width="36.99" height="24.89" rx="1.09" ry="1.09"/>
  <rect class="cls-1" x="507.35" y="645.63" width="45.52" height="24.18" rx="1.09" ry="1.09"/>
  <rect class="cls-1" x="593.77" y="645.63" width="33.79" height="24.18" rx="1.09" ry="1.09"/>
</svg>